<svg width="26" height="26" viewBox="0 0 26 26" fill="none" xmlns="http://www.w3.org/2000/svg">
<path d="M12.9998 2.08008C6.96913 2.08008 2.07983 6.96938 2.07983 13.0001C2.07983 15.2345 2.75726 17.3062 3.90795 19.037C6.05092 16.3853 9.32739 14.6901 12.9999 14.6901C16.6724 14.6901 19.9559 16.3851 22.0999 19.037C23.2506 17.3064 23.9199 15.2345 23.9199 13.0001C23.9199 6.96938 19.0305 2.08008 12.9998 2.08008ZM12.9998 4.03008C15.7187 4.03008 17.9398 6.25126 17.9398 8.97008C17.9398 11.6889 15.7187 13.9101 12.9998 13.9101C10.281 13.9101 8.05983 11.6889 8.05983 8.97008C8.05983 6.25126 10.281 4.03008 12.9998 4.03008ZM12.9998 5.59008C11.124 5.59008 9.61983 7.09423 9.61983 8.97008C9.61983 10.8459 11.124 12.3501 12.9998 12.3501C14.8757 12.3501 16.3798 10.8459 16.3798 8.97008C16.3798 7.09423 14.8757 5.59008 12.9998 5.59008ZM12.9998 16.2501C9.67365 16.2501 6.74059 17.8507 4.89095 20.3206C6.8897 22.5337 9.78311 23.9201 12.9998 23.9201C16.2184 23.9201 19.1098 22.5276 21.1087 20.3126C19.2582 17.8476 16.3221 16.2501 12.9998 16.2501Z" fill="white"/>
</svg>
